<?xml version="1.0" encoding="utf-8"?>
<!-- Generator: Adobe Illustrator 16.0.4, SVG Export Plug-In . SVG Version: 6.00 Build 0)  -->
<!DOCTYPE svg PUBLIC "-//W3C//DTD SVG 1.1//EN" "http://www.w3.org/Graphics/SVG/1.1/DTD/svg11.dtd">
<svg version="1.1" id="Layer_1" xmlns="http://www.w3.org/2000/svg" xmlns:xlink="http://www.w3.org/1999/xlink" x="0px" y="0px"
	 width="70px" height="70px" viewBox="0 0 70 70" enable-background="new 0 0 70 70" xml:space="preserve">
<path fill="#FFFFFF" d="M10.313,52.792l17.952-17.953L9.878,16.45c-1.931-1.93-1.94-5.038-0.01-6.969
	c1.922-1.922,5.039-1.919,6.968,0.009l18.389,18.39L53.159,9.945c1.931-1.929,5.043-1.915,6.963,0.005
	c1.928,1.928,1.931,5.031,0.003,6.96L42.19,34.845l17.943,17.943c1.925,1.925,1.92,5.036,0,6.957
	c-1.933,1.932-5.035,1.927-6.959,0.002L35.231,41.805L17.278,59.756c-1.919,1.921-5.033,1.927-6.96-0.001
	C8.397,57.835,8.395,54.712,10.313,52.792z"/>
</svg>
