<?xml version="1.0" encoding="utf-8"?>
<!-- Generator: Adobe Illustrator 16.0.0, SVG Export Plug-In . SVG Version: 6.00 Build 0)  -->
<!DOCTYPE svg PUBLIC "-//W3C//DTD SVG 1.1//EN" "http://www.w3.org/Graphics/SVG/1.1/DTD/svg11.dtd">
<svg version="1.1" id="Layer_1" xmlns="http://www.w3.org/2000/svg" xmlns:xlink="http://www.w3.org/1999/xlink" x="0px" y="0px"
	 width="100px" height="100px" viewBox="0 0 100 100" enable-background="new 0 0 100 100" xml:space="preserve">
<path fill="#FFFFFF" d="M52.883,5.869c-23.782,0-43.061,19.279-43.061,43.061c0,23.783,19.279,43.062,43.061,43.062
	c23.781,0,43.061-19.279,43.061-43.062C95.941,25.148,76.664,5.869,52.883,5.869z M52.883,89.738
	c-22.538,0-40.807-18.271-40.807-40.809c0-22.537,18.27-40.807,40.807-40.807c22.537,0,40.807,18.27,40.807,40.807
	C93.689,71.469,75.42,89.738,52.883,89.738z"/>
<path fill="#FFFFFF" d="M52.881,14.708c-18.9,0-34.222,15.321-34.222,34.223c0,18.901,15.322,34.221,34.222,34.221
	c18.901,0,34.225-15.32,34.225-34.221C87.104,30.03,71.782,14.708,52.881,14.708z M55.883,58.107L40.02,67.227l0.035-18.293
	l0.034-18.296l15.828,9.176l15.828,9.178L55.883,58.107z"/>
</svg>
